<svg style="fill:#cccccc" xml:space="preserve" viewBox="0 0 32 32" y="0px" x="0px" xmlns:xlink="http://www.w3.org/1999/xlink" xmlns="http://www.w3.org/2000/svg" id="zoom-icon" version="1.1" class="zoom "><path d="M31.999,16.001C31.999,7.164,24.837,0,16.001,0S-0.001,7.164-0.001,16.001S7.165,32,16.001,32&#10;&#9;  &#9;&#9;&#9;&#9;&#9;&#9;C29.027,32,31.999,19.964,31.999,16.001z M16.001,27.077c-6.13,0-11.077-4.947-11.077-11.076c0-6.129,4.948-11.078,11.077-11.078&#10;&#9;  &#9;&#9;&#9;&#9;&#9;&#9;c6.129,0,11.076,4.949,11.076,11.078C27.077,22.13,22.129,27.077,16.001,27.077z"/><polygon points="22.153,17.23 17.229,17.23 17.229,22.152 14.769,22.152 14.769,17.23 9.846,17.23 9.846,14.768 14.769,14.768 14.769,9.845 17.229,9.845 17.229,14.768 22.153,14.768 "/></svg>